<svg width="22" height="25" viewBox="0 0 22 25" fill="none" xmlns="http://www.w3.org/2000/svg">
<path d="M10.7143 0C16.6316 0 21.4286 4.79695 21.4286 10.7143C21.4286 15.1491 18.0481 19.7973 11.4286 24.7619C11.0053 25.0794 10.4233 25.0794 10 24.7619C3.38049 19.7973 0 15.1491 0 10.7143C0 4.79695 4.79695 0 10.7143 0ZM10.7143 7.14286C8.74184 7.14286 7.14286 8.74184 7.14286 10.7143C7.14286 12.6867 8.74184 14.2857 10.7143 14.2857C12.6867 14.2857 14.2857 12.6867 14.2857 10.7143C14.2857 8.74184 12.6867 7.14286 10.7143 7.14286Z" fill="#FDC300"/>
</svg>
