<svg width="18" height="17" viewBox="0 0 18 17" fill="none" xmlns="http://www.w3.org/2000/svg">
<path d="M9.03774 0C4.09761 0 0.0772258 3.66715 0.0754839 8.17397C0.0743226 9.6152 0.487742 11.0218 1.27161 12.2607L0 16.4964L4.75142 15.3598C6.07309 16.0145 7.54268 16.356 9.03426 16.3551H9.03774C13.9779 16.3551 17.9983 12.6874 18 8.18057C18.0012 5.99754 17.0698 3.94264 15.3772 2.39803C13.6852 0.852864 11.4352 0.00054988 9.03774 0ZM9.03774 14.9743H9.03484C7.69819 14.9743 6.3871 14.6466 5.24323 14.0274L4.97032 13.8801L2.15187 14.5542L2.90439 12.0468L2.72729 11.79C1.98343 10.7156 1.58745 9.45871 1.58806 8.17397C1.58981 4.42763 4.932 1.38075 9.04064 1.38075C11.0299 1.3813 12.9002 2.08899 14.3071 3.37296C15.714 4.65693 16.488 6.36431 16.4868 8.18002C16.4851 11.9264 13.1435 14.9743 9.03716 14.9743H9.03774ZM13.1237 9.8852C12.8996 9.78347 11.7987 9.28913 11.5932 9.22039C11.3882 9.15275 11.239 9.11756 11.0897 9.32212C10.9411 9.52667 10.5114 9.98692 10.3814 10.1227C10.2501 10.2591 10.1195 10.2756 9.89535 10.1739C9.67123 10.0716 8.94948 9.85605 8.09477 9.1599C7.42877 8.61882 6.97935 7.95017 6.84871 7.74506C6.71806 7.54106 6.83477 7.43053 6.94684 7.3288C7.04729 7.23807 7.17097 7.0907 7.28245 6.97138C7.39394 6.85206 7.4311 6.76682 7.50658 6.63045C7.5809 6.49463 7.54374 6.37476 7.48742 6.27303C7.4311 6.17021 6.984 5.16502 6.79645 4.75646C6.61529 4.35835 6.43065 4.41169 6.29303 4.40509C6.16239 4.39959 6.01374 4.39794 5.86335 4.39794C5.71529 4.39794 5.472 4.44908 5.26645 4.65364C5.06148 4.85819 4.48258 5.35198 4.48258 6.35716C4.48258 7.3629 5.28503 8.33398 5.3971 8.47035C5.50916 8.60617 6.97645 10.6699 9.22297 11.5552C9.75716 11.7647 10.1741 11.8906 10.4998 11.9852C11.0363 12.1408 11.5246 12.1183 11.9102 12.066C12.3399 12.0072 13.2352 11.5722 13.421 11.0955C13.608 10.6187 13.608 10.2096 13.5523 10.1244C13.4977 10.0392 13.3479 9.98802 13.1237 9.8852V9.8852Z" fill="#0F2B14"/>
</svg>
