<svg width="50" height="50" viewBox="0 0 50 50" fill="none" xmlns="http://www.w3.org/2000/svg">
<path fill-rule="evenodd" clip-rule="evenodd" d="M41.2335 11.2806C43.0253 11.762 44.4427 13.1794 44.9241 14.9712C45.8067 18.234 45.8334 25.0001 45.8334 25.0001C45.8334 25.0001 45.8334 31.793 44.9509 35.029C44.4695 36.8208 43.0521 38.2382 41.2602 38.7196C38.0243 39.6022 25.0001 39.6022 25.0001 39.6022C25.0001 39.6022 11.9759 39.6022 8.73992 38.7196C6.94809 38.2382 5.53068 36.8208 5.04929 35.029C4.16675 31.7663 4.16675 25.0001 4.16675 25.0001C4.16675 25.0001 4.16675 18.234 5.02255 14.998C5.50393 13.2062 6.92135 11.7887 8.71317 11.3074C11.9492 10.4248 24.9733 10.3981 24.9733 10.3981C24.9733 10.3981 37.9975 10.3981 41.2335 11.2806ZM31.6325 25.0001L20.8281 31.2581V18.7421L31.6325 25.0001Z" fill="#33302A"/>
</svg>
